PathFileType	4	(X/Y/Z)	C:/Users/opensim2020/Desktop/walking_exp_matlab/subject06_walking17_straight_02.trc																																																																																																																																					
DataRate	CameraRate	NumFrames	NumMarkers	Units	OrigDataRate	OrigDataStartFrame	OrigNumFrames																																																																																																																																	
100	100	8	45	mm	100	2449	334																																																																																																																																	
Frame#	Time	LFHD			RFHD			LBHD			RBHD			C7			T10			CLAV			STRN			RBAK			LSHO			LUPA			LELB			LFRM			LWRA			LWRB			LFIN			RSHO			RUPA			RELB			RFRM			RWRA			RWRB			RFIN			LASI			RASI			LPSI			RPSI			LTHI			LKNE			LTIB			LANK			LHEE			LTOE			RTHI			RKNE			RTIB			RANK			RHEE			RTOE			*39			*40			*41			*42			*43			*44		
		X1	Y1	Z1	X2	Y2	Z2	X3	Y3	Z3	X4	Y4	Z4	X5	Y5	Z5	X6	Y6	Z6	X7	Y7	Z7	X8	Y8	Z8	X9	Y9	Z9	X10	Y10	Z10	X11	Y11	Z11	X12	Y12	Z12	X13	Y13	Z13	X14	Y14	Z14	X15	Y15	Z15	X16	Y16	Z16	X17	Y17	Z17	X18	Y18	Z18	X19	Y19	Z19	X20	Y20	Z20	X21	Y21	Z21	X22	Y22	Z22	X23	Y23	Z23	X24	Y24	Z24	X25	Y25	Z25	X26	Y26	Z26	X27	Y27	Z27	X28	Y28	Z28	X29	Y29	Z29	X30	Y30	Z30	X31	Y31	Z31	X32	Y32	Z32	X33	Y33	Z33	X34	Y34	Z34	X35	Y35	Z35	X36	Y36	Z36	X37	Y37	Z37	X38	Y38	Z38	X39	Y39	Z39	X40	Y40	Z40	X41	Y41	Z41	X42	Y42	Z42	X43	Y43	Z43	X44	Y44	Z44	X45	Y45	Z45
																																																																																																																																								
293	2.92	675.77106	1671.57141	-1518.26147	666.48926	1656.10608	-1386.80444	545.26813	1611.5509	-1530.58472	537.27686	1601.57483	-1401.979	547.43024	1451.87048	-1470.03931	523.57751	1122.34631	-1462.08167	659.15259	1378.51587	-1468.4281	705.15424	1203.36194	-1472.08533	481.98737	1280.39063	-1385.81738	605.27496	1405.69897	-1631.08276	600.94269	1203.71545	-1705.48914	594.63116	1091.46545	-1718.96497	626.77826	944.20123	-1738.54529	689.50281	833.85138	-1690.23987	632.33344	824.61908	-1731.59912	677.99597	746.56268	-1729.32104	618.86407	1410.26685	-1307.39856	594.53326	1210.07349	-1218.02722	611.31537	1088.99036	-1206.12244	632.52734	970.33643	-1189.52673	696.70337	833.72235	-1224.10828	645.61621	833.58075	-1179.35706	685.68054	759.2749	-1179.20984	710.74426	967.23212	-1560.70837	692.47131	967.06067	-1341.34961	549.63538	995.10797	-1544.26819	543.18109	989.97467	-1376.28381	657.08429	654.11414	-1623.30627	660.05328	490.08051	-1598.88245	650.4024	234.57883	-1579.27856	667.23755	67.17257	-1524.87439	630.38763	54.07563	-1477.16284	815.06299	41.15112	-1523.51843	655.53534	632.86902	-1268.28088	679.29565	507.81714	-1273.12024	493.95599	335.10159	-1290.91931	351.61917	221.51817	-1344.85657	317.12189	233.91008	-1396.70032	407.88916	74.74002	-1331.94629	569.64227	1703.30518	-1465.60193	NaN	NaN	NaN	NaN	NaN	NaN	NaN	NaN	NaN	NaN	NaN	NaN	NaN	NaN	NaN
294	2.93	682.66949	1671.84863	-1519.39209	672.8515	1656.42236	-1388.01733	551.99738	1612.21228	-1532.20715	543.57776	1602.24438	-1403.646	553.45178	1452.34583	-1471.89319	530.00244	1122.69666	-1463.14453	665.41498	1378.88	-1469.58179	711.4361	1203.74377	-1473.11047	488.1611	1280.73853	-1387.37732	612.25812	1405.9906	-1632.25537	610.57666	1204.01917	-1707.03296	605.72308	1091.80566	-1721.04285	639.72278	945.00079	-1740.65076	702.89191	835.21478	-1691.86963	646.56757	825.44781	-1734.27356	693.32117	748.13458	-1731.76904	624.61688	1410.8844	-1308.64453	600.24353	1210.63477	-1219.46582	616.95575	1089.61743	-1207.73816	638.12842	971.03217	-1191.01318	701.94537	834.26721	-1225.38452	651.31305	834.2019	-1180.92859	691.43225	760.07031	-1180.39978	716.63678	967.50226	-1562.11096	699.39075	967.72504	-1342.5697	555.66974	995.43658	-1545.20862	549.94867	990.34058	-1377.28467	660.16138	653.87592	-1624.40503	661.8772	490.03598	-1599.50354	650.55969	234.61197	-1579.42676	667.18756	67.21766	-1524.78149	630.45129	54.10301	-1477.13293	815.16626	41.02544	-1523.66577	666.70728	634.20673	-1268.96973	692.38007	509.61066	-1273.91113	508.05096	336.5144	-1291.35791	366.70496	221.15773	-1344.54456	331.47034	232.14566	-1396.45764	427.29797	76.90835	-1329.30249	576.43976	1703.87732	-1467.08789	NaN	NaN	NaN	NaN	NaN	NaN	NaN	NaN	NaN	NaN	NaN	NaN	NaN	NaN	NaN
295	2.94	689.42029	1672.19568	-1520.48669	679.38696	1656.81421	-1389.17444	558.66949	1612.98218	-1533.66711	549.82819	1603.04651	-1405.19531	559.62567	1452.74976	-1473.29382	536.34711	1123.18408	-1464.13525	671.57471	1379.38025	-1470.67932	717.60559	1204.31763	-1474.18054	494.30612	1281.24438	-1388.71252	619.00824	1406.36304	-1633.29785	619.96136	1204.51807	-1708.44641	617.40247	1092.28821	-1722.646	652.66235	946.06323	-1742.71118	716.27484	836.76953	-1693.41003	660.90216	826.6908	-1736.76624	708.52881	749.98065	-1734.19189	630.43152	1411.61633	-1309.85303	606.04327	1211.39136	-1220.74097	622.51996	1090.422	-1209.20251	643.78009	971.78711	-1192.62732	707.71149	835.03479	-1226.78601	656.92914	835.02814	-1182.41406	697.11078	760.88031	-1181.78821	722.2793	967.73346	-1563.76855	706.29883	968.43176	-1343.98889	561.45123	995.81842	-1546.27661	556.70465	990.94531	-1378.13489	663.29791	653.98108	-1625.29163	663.88855	490.06061	-1599.89038	650.88416	234.75739	-1579.47729	667.25476	67.39294	-1524.65112	630.8775	53.83193	-1477.08765	815.24261	40.93031	-1523.86218	677.36993	635.66278	-1269.86414	705.1178	511.6102	-1274.99817	522.19928	337.29593	-1291.73755	382.3779	219.59962	-1344.11145	346.30923	229.17307	-1396.06165	446.92032	77.78601	-1327.14783	583.17987	1704.55396	-1468.49854	NaN	NaN	NaN	NaN	NaN	NaN	NaN	NaN	NaN	NaN	NaN	NaN	NaN	NaN	NaN
296	2.95	696.13916	1672.63232	-1521.57581	685.62659	1657.28357	-1390.26501	565.25873	1613.84912	-1535.17468	556.01251	1603.9093	-1406.61584	565.737	1453.39465	-1474.61792	542.64813	1123.69531	-1465.10364	677.63666	1379.99329	-1471.74658	723.64203	1204.82532	-1475.3407	500.38422	1281.79907	-1389.974	625.36194	1406.98267	-1634.45264	629.03436	1205.19727	-1709.81055	628.14703	1093.03699	-1724.38306	665.4613	947.46375	-1744.55627	729.74786	838.66199	-1694.95251	675.11102	828.13196	-1739.20398	723.70563	752.07532	-1736.34253	636.2652	1412.45007	-1311.03394	611.88818	1212.25623	-1221.91699	628.08148	1091.25012	-1210.4873	649.29346	972.63239	-1193.99829	713.617	836.10126	-1228.02466	662.58612	835.92395	-1183.93054	703.05908	761.89978	-1183.12024	727.71179	967.98553	-1565.57544	713.24445	969.23584	-1345.50061	567.0575	996.164	-1547.15588	563.48218	991.71857	-1379.00427	666.46277	654.09009	-1625.90564	666.13342	490.26566	-1600.10828	651.58044	234.98199	-1579.36487	667.23785	67.49741	-1524.48914	630.95331	53.91348	-1476.91907	815.28082	40.79971	-1524.10229	688.02533	637.23694	-1270.8241	717.26935	513.57721	-1276.3783	536.50226	337.36343	-1291.51367	398.54086	216.83151	-1343.5105	362.06937	224.77794	-1395.63403	467.01736	77.3614	-1325.19836	589.90472	1705.32251	-1469.87744	NaN	NaN	NaN	NaN	NaN	NaN	NaN	NaN	NaN	NaN	NaN	NaN	NaN	NaN	NaN
297	2.96	702.70984	1673.14893	-1522.51807	691.87738	1657.76624	-1391.27234	571.78125	1614.7616	-1536.5271	562.13916	1604.79517	-1408.06506	571.79407	1453.96753	-1475.90173	548.67902	1124.33887	-1466.01685	683.78137	1380.6156	-1472.90125	729.70947	1205.48523	-1476.57593	506.58011	1282.46252	-1391.01489	631.54718	1407.65344	-1635.50012	637.76404	1206.02075	-1711.07251	638.60004	1093.89868	-1726.01489	677.9967	948.94037	-1746.26001	742.91241	840.63531	-1696.37207	689.05841	829.63098	-1741.47571	738.77368	754.49335	-1738.45239	642.05896	1413.35229	-1312.23584	617.74493	1213.17529	-1222.96411	633.57916	1092.11609	-1211.69897	654.81494	973.57831	-1195.18567	719.44928	837.06995	-1229.28931	668.33008	836.7995	-1185.39771	708.86041	762.78308	-1184.6012	732.99323	968.28467	-1567.521	720.21924	970.08386	-1347.27124	572.52942	996.64105	-1547.97302	570.26996	992.70361	-1379.79138	669.86859	654.26556	-1626.28662	668.71338	490.57309	-1600.16699	652.5412	235.28038	-1579.18652	667.22876	67.56953	-1524.27222	631.05286	54.09676	-1476.7041	815.3255	40.67834	-1524.34802	698.26709	638.86157	-1271.8988	728.98639	515.60693	-1278.04419	551.11713	336.54431	-1291.86243	415.18613	212.96988	-1342.84106	377.77905	219.57669	-1394.84314	488.19247	76.53809	-1323.37708	596.57922	1706.06006	-1471.10718	NaN	NaN	NaN	NaN	NaN	NaN	NaN	NaN	NaN	NaN	NaN	NaN	NaN	NaN	NaN
298	2.97	709.33875	1673.64856	-1523.54272	698.25861	1658.34729	-1392.32593	578.23669	1615.64526	-1537.7915	568.24768	1605.67932	-1409.37744	577.836	1454.67334	-1477.01904	554.77295	1125.0459	-1467.0022	689.79932	1381.22241	-1474.0144	735.69568	1206.17322	-1477.87708	512.70447	1283.05847	-1392.04834	637.58221	1408.41016	-1636.54517	646.26373	1206.94446	-1712.31409	648.67389	1094.86377	-1727.52588	690.26752	950.60712	-1747.96533	756.28845	842.97839	-1697.84412	703.19537	831.54279	-1743.53137	753.63098	757.01483	-1740.34949	647.82703	1414.245	-1313.44763	623.51935	1214.13916	-1223.94507	638.99713	1092.9834	-1212.75513	660.31073	974.40259	-1196.25671	725.16162	838.05438	-1230.67798	674.08636	837.65271	-1186.70593	714.43115	763.2879	-1186.45654	738.07703	968.61932	-1569.53174	727.09082	971.04327	-1349.19165	577.83795	997.06897	-1548.63391	576.94568	993.78149	-1380.43188	673.48981	654.47064	-1626.40771	671.54236	490.83929	-1600.15906	653.52563	235.57419	-1578.88464	667.3125	67.82302	-1524.09753	631.23071	54.27937	-1476.35571	815.43994	40.65352	-1524.61023	708.11127	640.49707	-1273.08069	740.44147	517.5484	-1279.81824	566.00085	335.03601	-1292.72253	432.30957	208.19278	-1342.11731	394.13287	213.01678	-1393.69397	510.2626	75.12659	-1321.78882	603.06274	1706.87598	-1472.31946	NaN	NaN	NaN	NaN	NaN	NaN	NaN	NaN	NaN	NaN	NaN	NaN	NaN	NaN	NaN
299	2.98	715.72113	1674.13391	-1524.50452	704.32977	1658.80969	-1393.3114	584.53571	1616.41797	-1539.00977	574.40802	1606.48572	-1410.56812	583.94977	1455.30798	-1478.14893	560.61914	1125.82642	-1468.01172	695.76019	1381.84241	-1475.10669	741.55444	1206.77783	-1479.28613	518.86481	1283.69873	-1393.07288	643.44574	1409.20203	-1637.5481	654.26709	1207.90771	-1713.54211	658.44135	1095.92969	-1728.96375	702.21637	952.30731	-1749.47742	769.43268	845.45032	-1699.20935	716.87848	833.46936	-1745.51782	768.48718	759.73584	-1742.15381	653.74902	1415.0802	-1314.60913	629.28638	1215.09619	-1224.82813	644.49103	1093.82178	-1213.68396	665.88318	975.22791	-1197.38147	731.02527	839.11365	-1231.93262	679.948	838.47272	-1188.00122	719.94208	764.00513	-1188.13708	743.0943	968.90326	-1571.5376	733.90051	972.0365	-1351.198	583.01953	997.55963	-1549.32117	583.64282	994.86023	-1381.04565	677.1969	654.6153	-1626.52917	674.59985	491.03098	-1600.13892	654.39374	235.71811	-1578.60449	667.6665	68.00616	-1523.4613	631.54114	54.56506	-1475.90588	815.53491	40.57717	-1524.83044	717.95117	642.18915	-1274.26404	751.49536	519.56848	-1281.81775	580.67584	333.06976	-1293.26733	449.90796	202.63954	-1341.4917	411.09372	205.72446	-1392.91748	533.50769	73.70881	-1320.25378	609.52057	1707.59827	-1473.4834	NaN	NaN	NaN	NaN	NaN	NaN	NaN	NaN	NaN	NaN	NaN	NaN	NaN	NaN	NaN
300	2.99	722.10559	1674.53247	-1525.42029	710.50684	1659.36316	-1394.27563	590.76147	1617.13892	-1540.12903	580.5199	1607.18958	-1411.72632	589.90796	1455.92969	-1479.15442	566.60046	1126.49951	-1468.87085	701.84937	1382.4696	-1476.26257	747.44092	1207.37146	-1480.76099	524.88354	1284.40186	-1394.04614	649.27814	1410.03687	-1638.53992	662.04425	1208.90344	-1714.75928	667.98169	1096.9436	-1730.3623	714.00574	954.08777	-1750.95117	782.55957	848.12579	-1700.55786	730.53271	835.63202	-1747.16077	783.21179	762.51166	-1743.71497	659.89117	1415.67493	-1315.78162	634.99622	1215.91272	-1225.77637	649.98907	1094.50171	-1214.61096	671.56769	976.00989	-1198.34595	737.43726	840.13953	-1233.17419	685.65979	839.13794	-1189.25305	726.03284	764.77887	-1189.58374	748.0235	969.12988	-1573.52869	740.64685	973.10223	-1353.15564	588.26581	997.91516	-1549.69482	590.2182	995.91693	-1381.50684	681.11108	654.66266	-1626.54333	677.85565	491.19348	-1600.09058	655.66125	235.94247	-1578.32495	667.95563	68.14819	-1523.03845	631.45331	55.13444	-1475.46643	815.70941	40.48016	-1525.00061	727.69604	643.81128	-1275.49731	762.45972	521.46216	-1284.15735	595.46765	330.72937	-1294.06067	468.05719	196.4178	-1340.96582	428.74295	197.51669	-1392.22998	556.63947	71.19167	-1319.03076	615.87091	1708.30261	-1474.55042	NaN	NaN	NaN	NaN	NaN	NaN	NaN	NaN	NaN	NaN	NaN	NaN	NaN	NaN	NaN
